<mxfile host="app.diagrams.net" modified="2024-03-24T15:17:50.348Z" agent="Mozilla/5.0 (Windows NT 10.0; Win64; x64) AppleWebKit/537.36 (KHTML, like Gecko) Chrome/122.0.0.0 Safari/537.36" etag="Xgu8LVplcF3gEJGkx4v1" version="24.1.0" type="device">
  <diagram name="PÃ¡gina-1" id="__RvC6RNIXlwDL6F6Q4U">
    <mxGraphModel dx="1862" dy="511" grid="1" gridSize="10" guides="1" tooltips="1" connect="1" arrows="1" fold="1" page="1" pageScale="1" pageWidth="827" pageHeight="1169" math="0" shadow="0">
      <root>
        <mxCell id="0" />
        <mxCell id="1" parent="0" />
        <mxCell id="3TDGZo_etfRVmaYsIFVc-8" style="edgeStyle=orthogonalEdgeStyle;rounded=0;orthogonalLoop=1;jettySize=auto;html=1;exitX=1;exitY=0.5;exitDx=0;exitDy=0;entryX=0;entryY=0.5;entryDx=0;entryDy=0;" parent="1" source="3TDGZo_etfRVmaYsIFVc-1" target="3TDGZo_etfRVmaYsIFVc-6" edge="1">
          <mxGeometry relative="1" as="geometry" />
        </mxCell>
        <mxCell id="3TDGZo_etfRVmaYsIFVc-10" style="edgeStyle=orthogonalEdgeStyle;rounded=0;orthogonalLoop=1;jettySize=auto;html=1;exitX=0.5;exitY=1;exitDx=0;exitDy=0;entryX=0.5;entryY=0;entryDx=0;entryDy=0;" parent="1" source="3TDGZo_etfRVmaYsIFVc-1" target="3TDGZo_etfRVmaYsIFVc-7" edge="1">
          <mxGeometry relative="1" as="geometry" />
        </mxCell>
        <mxCell id="3TDGZo_etfRVmaYsIFVc-54" style="edgeStyle=orthogonalEdgeStyle;rounded=0;orthogonalLoop=1;jettySize=auto;html=1;exitX=0;exitY=0.5;exitDx=0;exitDy=0;entryX=1;entryY=0.5;entryDx=0;entryDy=0;" parent="1" source="3TDGZo_etfRVmaYsIFVc-1" target="3TDGZo_etfRVmaYsIFVc-45" edge="1">
          <mxGeometry relative="1" as="geometry" />
        </mxCell>
        <mxCell id="3TDGZo_etfRVmaYsIFVc-55" style="edgeStyle=orthogonalEdgeStyle;rounded=0;orthogonalLoop=1;jettySize=auto;html=1;exitX=0;exitY=0.5;exitDx=0;exitDy=0;entryX=1;entryY=0.5;entryDx=0;entryDy=0;" parent="1" source="3TDGZo_etfRVmaYsIFVc-1" target="3TDGZo_etfRVmaYsIFVc-46" edge="1">
          <mxGeometry relative="1" as="geometry" />
        </mxCell>
        <mxCell id="3TDGZo_etfRVmaYsIFVc-56" style="edgeStyle=orthogonalEdgeStyle;rounded=0;orthogonalLoop=1;jettySize=auto;html=1;exitX=0;exitY=0.5;exitDx=0;exitDy=0;entryX=1;entryY=0.5;entryDx=0;entryDy=0;" parent="1" source="3TDGZo_etfRVmaYsIFVc-1" target="3TDGZo_etfRVmaYsIFVc-47" edge="1">
          <mxGeometry relative="1" as="geometry" />
        </mxCell>
        <mxCell id="3TDGZo_etfRVmaYsIFVc-57" style="edgeStyle=orthogonalEdgeStyle;rounded=0;orthogonalLoop=1;jettySize=auto;html=1;exitX=0;exitY=0.5;exitDx=0;exitDy=0;entryX=1;entryY=0.5;entryDx=0;entryDy=0;" parent="1" source="3TDGZo_etfRVmaYsIFVc-1" target="3TDGZo_etfRVmaYsIFVc-49" edge="1">
          <mxGeometry relative="1" as="geometry" />
        </mxCell>
        <mxCell id="3TDGZo_etfRVmaYsIFVc-58" style="edgeStyle=orthogonalEdgeStyle;rounded=0;orthogonalLoop=1;jettySize=auto;html=1;exitX=0;exitY=0.5;exitDx=0;exitDy=0;entryX=1;entryY=0.5;entryDx=0;entryDy=0;" parent="1" source="3TDGZo_etfRVmaYsIFVc-1" target="3TDGZo_etfRVmaYsIFVc-48" edge="1">
          <mxGeometry relative="1" as="geometry" />
        </mxCell>
        <mxCell id="3TDGZo_etfRVmaYsIFVc-59" style="edgeStyle=orthogonalEdgeStyle;rounded=0;orthogonalLoop=1;jettySize=auto;html=1;exitX=0;exitY=0.5;exitDx=0;exitDy=0;entryX=1;entryY=0.5;entryDx=0;entryDy=0;" parent="1" source="3TDGZo_etfRVmaYsIFVc-1" target="3TDGZo_etfRVmaYsIFVc-50" edge="1">
          <mxGeometry relative="1" as="geometry" />
        </mxCell>
        <mxCell id="3TDGZo_etfRVmaYsIFVc-1" value="&lt;font style=&quot;font-size: 16px;&quot;&gt;&lt;b style=&quot;font-size: 16px;&quot;&gt;Facturas&lt;/b&gt;&lt;/font&gt;" style="rounded=0;whiteSpace=wrap;html=1;strokeColor=#9673a6;fillColor=#e1d5e7;fontSize=16;" parent="1" vertex="1">
          <mxGeometry x="-216" y="180" width="123" height="60" as="geometry" />
        </mxCell>
        <mxCell id="3TDGZo_etfRVmaYsIFVc-53" style="edgeStyle=orthogonalEdgeStyle;rounded=0;orthogonalLoop=1;jettySize=auto;html=1;exitX=0;exitY=0.5;exitDx=0;exitDy=0;entryX=1;entryY=0.5;entryDx=0;entryDy=0;" parent="1" source="3TDGZo_etfRVmaYsIFVc-3" target="3TDGZo_etfRVmaYsIFVc-26" edge="1">
          <mxGeometry relative="1" as="geometry" />
        </mxCell>
        <mxCell id="3TDGZo_etfRVmaYsIFVc-66" style="edgeStyle=orthogonalEdgeStyle;rounded=0;orthogonalLoop=1;jettySize=auto;html=1;exitX=0.5;exitY=1;exitDx=0;exitDy=0;" parent="1" source="3TDGZo_etfRVmaYsIFVc-3" target="3TDGZo_etfRVmaYsIFVc-13" edge="1">
          <mxGeometry relative="1" as="geometry" />
        </mxCell>
        <mxCell id="3TDGZo_etfRVmaYsIFVc-67" style="edgeStyle=orthogonalEdgeStyle;rounded=0;orthogonalLoop=1;jettySize=auto;html=1;exitX=0.5;exitY=1;exitDx=0;exitDy=0;entryX=0.5;entryY=0;entryDx=0;entryDy=0;" parent="1" source="3TDGZo_etfRVmaYsIFVc-3" target="3TDGZo_etfRVmaYsIFVc-15" edge="1">
          <mxGeometry relative="1" as="geometry" />
        </mxCell>
        <mxCell id="3TDGZo_etfRVmaYsIFVc-68" style="edgeStyle=orthogonalEdgeStyle;rounded=0;orthogonalLoop=1;jettySize=auto;html=1;exitX=0.5;exitY=1;exitDx=0;exitDy=0;entryX=0.5;entryY=0;entryDx=0;entryDy=0;" parent="1" source="3TDGZo_etfRVmaYsIFVc-3" target="3TDGZo_etfRVmaYsIFVc-16" edge="1">
          <mxGeometry relative="1" as="geometry" />
        </mxCell>
        <mxCell id="3TDGZo_etfRVmaYsIFVc-3" value="&lt;b style=&quot;font-size: 16px;&quot;&gt;&lt;font style=&quot;font-size: 16px;&quot;&gt;Productos&lt;/font&gt;&lt;/b&gt;" style="rounded=0;whiteSpace=wrap;html=1;fillColor=#e1d5e7;strokeColor=#9673a6;fontSize=16;" parent="1" vertex="1">
          <mxGeometry x="520" y="180" width="120" height="60" as="geometry" />
        </mxCell>
        <mxCell id="3TDGZo_etfRVmaYsIFVc-40" style="edgeStyle=orthogonalEdgeStyle;rounded=0;orthogonalLoop=1;jettySize=auto;html=1;exitX=0.5;exitY=1;exitDx=0;exitDy=0;entryX=0.5;entryY=0;entryDx=0;entryDy=0;" parent="1" source="3TDGZo_etfRVmaYsIFVc-4" target="3TDGZo_etfRVmaYsIFVc-35" edge="1">
          <mxGeometry relative="1" as="geometry">
            <mxPoint x="-98" y="506" as="targetPoint" />
          </mxGeometry>
        </mxCell>
        <mxCell id="3TDGZo_etfRVmaYsIFVc-41" style="edgeStyle=orthogonalEdgeStyle;rounded=0;orthogonalLoop=1;jettySize=auto;html=1;exitX=0.5;exitY=1;exitDx=0;exitDy=0;entryX=0.5;entryY=0;entryDx=0;entryDy=0;" parent="1" source="3TDGZo_etfRVmaYsIFVc-4" target="3TDGZo_etfRVmaYsIFVc-36" edge="1">
          <mxGeometry relative="1" as="geometry" />
        </mxCell>
        <mxCell id="3TDGZo_etfRVmaYsIFVc-43" style="edgeStyle=orthogonalEdgeStyle;rounded=0;orthogonalLoop=1;jettySize=auto;html=1;exitX=0.5;exitY=1;exitDx=0;exitDy=0;entryX=0.5;entryY=0;entryDx=0;entryDy=0;" parent="1" source="3TDGZo_etfRVmaYsIFVc-4" target="3TDGZo_etfRVmaYsIFVc-39" edge="1">
          <mxGeometry relative="1" as="geometry" />
        </mxCell>
        <mxCell id="3TDGZo_etfRVmaYsIFVc-44" style="edgeStyle=orthogonalEdgeStyle;rounded=0;orthogonalLoop=1;jettySize=auto;html=1;exitX=0.5;exitY=1;exitDx=0;exitDy=0;entryX=0.5;entryY=0;entryDx=0;entryDy=0;" parent="1" source="3TDGZo_etfRVmaYsIFVc-4" target="3TDGZo_etfRVmaYsIFVc-38" edge="1">
          <mxGeometry relative="1" as="geometry" />
        </mxCell>
        <mxCell id="3TDGZo_etfRVmaYsIFVc-60" style="edgeStyle=orthogonalEdgeStyle;rounded=0;orthogonalLoop=1;jettySize=auto;html=1;exitX=0;exitY=0.5;exitDx=0;exitDy=0;entryX=0.5;entryY=1;entryDx=0;entryDy=0;" parent="1" source="3TDGZo_etfRVmaYsIFVc-4" target="3TDGZo_etfRVmaYsIFVc-7" edge="1">
          <mxGeometry relative="1" as="geometry" />
        </mxCell>
        <mxCell id="3TDGZo_etfRVmaYsIFVc-65" style="edgeStyle=orthogonalEdgeStyle;rounded=0;orthogonalLoop=1;jettySize=auto;html=1;exitX=0.5;exitY=1;exitDx=0;exitDy=0;entryX=0.5;entryY=0;entryDx=0;entryDy=0;" parent="1" source="3TDGZo_etfRVmaYsIFVc-4" target="3TDGZo_etfRVmaYsIFVc-37" edge="1">
          <mxGeometry relative="1" as="geometry" />
        </mxCell>
        <mxCell id="3TDGZo_etfRVmaYsIFVc-4" value="&lt;b style=&quot;font-size: 16px;&quot;&gt;&lt;font style=&quot;font-size: 16px;&quot;&gt;clientes_proveedores&lt;/font&gt;&lt;/b&gt;" style="rounded=0;whiteSpace=wrap;html=1;fillColor=#e1d5e7;strokeColor=#9673a6;fontSize=16;" parent="1" vertex="1">
          <mxGeometry x="-79" y="386" width="174" height="60" as="geometry" />
        </mxCell>
        <mxCell id="3TDGZo_etfRVmaYsIFVc-6" value="&lt;b&gt;tiene&lt;/b&gt;" style="rhombus;whiteSpace=wrap;html=1;fillColor=#f8cecc;strokeColor=#b85450;" parent="1" vertex="1">
          <mxGeometry x="-20" y="170" width="80" height="80" as="geometry" />
        </mxCell>
        <mxCell id="3TDGZo_etfRVmaYsIFVc-7" value="&lt;b&gt;pertenece&lt;/b&gt;" style="rhombus;whiteSpace=wrap;html=1;fillColor=#f8cecc;strokeColor=#b85450;" parent="1" vertex="1">
          <mxGeometry x="-196" y="297" width="83" height="80" as="geometry" />
        </mxCell>
        <mxCell id="3TDGZo_etfRVmaYsIFVc-13" value="ID_pdt" style="ellipse;whiteSpace=wrap;html=1;fillColor=#fff2cc;strokeColor=#d6b656;" parent="1" vertex="1">
          <mxGeometry x="449" y="297" width="80" height="50" as="geometry" />
        </mxCell>
        <mxCell id="3TDGZo_etfRVmaYsIFVc-15" value="descripcion" style="ellipse;whiteSpace=wrap;html=1;fillColor=#fff2cc;strokeColor=#d6b656;" parent="1" vertex="1">
          <mxGeometry x="539" y="297" width="80" height="50" as="geometry" />
        </mxCell>
        <mxCell id="3TDGZo_etfRVmaYsIFVc-16" value="precio" style="ellipse;whiteSpace=wrap;html=1;fillColor=#fff2cc;strokeColor=#d6b656;" parent="1" vertex="1">
          <mxGeometry x="629" y="297" width="80" height="50" as="geometry" />
        </mxCell>
        <mxCell id="3TDGZo_etfRVmaYsIFVc-28" style="edgeStyle=orthogonalEdgeStyle;rounded=0;orthogonalLoop=1;jettySize=auto;html=1;exitX=1;exitY=0.5;exitDx=0;exitDy=0;entryX=0;entryY=0.5;entryDx=0;entryDy=0;" parent="1" source="3TDGZo_etfRVmaYsIFVc-24" target="3TDGZo_etfRVmaYsIFVc-26" edge="1">
          <mxGeometry relative="1" as="geometry" />
        </mxCell>
        <mxCell id="3TDGZo_etfRVmaYsIFVc-29" style="edgeStyle=orthogonalEdgeStyle;rounded=0;orthogonalLoop=1;jettySize=auto;html=1;exitX=0;exitY=0.5;exitDx=0;exitDy=0;entryX=1;entryY=0.5;entryDx=0;entryDy=0;" parent="1" source="3TDGZo_etfRVmaYsIFVc-24" target="3TDGZo_etfRVmaYsIFVc-6" edge="1">
          <mxGeometry relative="1" as="geometry" />
        </mxCell>
        <mxCell id="3TDGZo_etfRVmaYsIFVc-63" style="edgeStyle=orthogonalEdgeStyle;rounded=0;orthogonalLoop=1;jettySize=auto;html=1;exitX=0.5;exitY=1;exitDx=0;exitDy=0;entryX=0.5;entryY=0;entryDx=0;entryDy=0;" parent="1" source="3TDGZo_etfRVmaYsIFVc-24" target="3TDGZo_etfRVmaYsIFVc-30" edge="1">
          <mxGeometry relative="1" as="geometry" />
        </mxCell>
        <mxCell id="3TDGZo_etfRVmaYsIFVc-64" style="edgeStyle=orthogonalEdgeStyle;rounded=0;orthogonalLoop=1;jettySize=auto;html=1;exitX=0.5;exitY=1;exitDx=0;exitDy=0;entryX=0.5;entryY=0;entryDx=0;entryDy=0;" parent="1" source="3TDGZo_etfRVmaYsIFVc-24" target="3TDGZo_etfRVmaYsIFVc-31" edge="1">
          <mxGeometry relative="1" as="geometry" />
        </mxCell>
        <mxCell id="3TDGZo_etfRVmaYsIFVc-24" value="&lt;b&gt;&lt;font style=&quot;font-size: 15px;&quot;&gt;Articulos_por_factura&lt;/font&gt;&lt;/b&gt;" style="rounded=0;whiteSpace=wrap;html=1;fillColor=#e1d5e7;strokeColor=#9673a6;" parent="1" vertex="1">
          <mxGeometry x="130" y="180" width="170" height="60" as="geometry" />
        </mxCell>
        <mxCell id="3TDGZo_etfRVmaYsIFVc-26" value="&lt;b&gt;es un&lt;/b&gt;" style="rhombus;whiteSpace=wrap;html=1;fillColor=#f8cecc;strokeColor=#b85450;" parent="1" vertex="1">
          <mxGeometry x="373.5" y="170" width="80" height="80" as="geometry" />
        </mxCell>
        <mxCell id="3TDGZo_etfRVmaYsIFVc-30" value="ID_articulo" style="ellipse;whiteSpace=wrap;html=1;fillColor=#fff2cc;strokeColor=#d6b656;" parent="1" vertex="1">
          <mxGeometry x="120" y="286" width="80" height="50" as="geometry" />
        </mxCell>
        <mxCell id="3TDGZo_etfRVmaYsIFVc-31" value="cantidad" style="ellipse;whiteSpace=wrap;html=1;fillColor=#fff2cc;strokeColor=#d6b656;" parent="1" vertex="1">
          <mxGeometry x="220" y="286" width="80" height="50" as="geometry" />
        </mxCell>
        <mxCell id="3TDGZo_etfRVmaYsIFVc-35" value="ID_cli_pvd" style="ellipse;whiteSpace=wrap;html=1;fillColor=#fff2cc;strokeColor=#d6b656;" parent="1" vertex="1">
          <mxGeometry x="-216" y="506" width="80" height="50" as="geometry" />
        </mxCell>
        <mxCell id="3TDGZo_etfRVmaYsIFVc-36" value="nombre" style="ellipse;whiteSpace=wrap;html=1;fillColor=#fff2cc;strokeColor=#d6b656;" parent="1" vertex="1">
          <mxGeometry x="-126" y="506" width="80" height="50" as="geometry" />
        </mxCell>
        <mxCell id="3TDGZo_etfRVmaYsIFVc-37" value="rif" style="ellipse;whiteSpace=wrap;html=1;fillColor=#fff2cc;strokeColor=#d6b656;" parent="1" vertex="1">
          <mxGeometry x="-33" y="506" width="80" height="50" as="geometry" />
        </mxCell>
        <mxCell id="3TDGZo_etfRVmaYsIFVc-38" value="telÃ©fono" style="ellipse;whiteSpace=wrap;html=1;fillColor=#fff2cc;strokeColor=#d6b656;" parent="1" vertex="1">
          <mxGeometry x="150" y="506" width="80" height="50" as="geometry" />
        </mxCell>
        <mxCell id="3TDGZo_etfRVmaYsIFVc-39" value="direcciÃ³n" style="ellipse;whiteSpace=wrap;html=1;fillColor=#fff2cc;strokeColor=#d6b656;" parent="1" vertex="1">
          <mxGeometry x="58" y="506" width="80" height="50" as="geometry" />
        </mxCell>
        <mxCell id="3TDGZo_etfRVmaYsIFVc-45" value="&lt;div style=&quot;font-size: 14px; line-height: 19px; white-space: pre;&quot;&gt;&lt;div style=&quot;line-height: 19px;&quot;&gt;id_fact&lt;/div&gt;&lt;/div&gt;" style="ellipse;whiteSpace=wrap;html=1;fillColor=#fff2cc;strokeColor=#d6b656;" parent="1" vertex="1">
          <mxGeometry x="-368" y="39" width="80" height="50" as="geometry" />
        </mxCell>
        <mxCell id="3TDGZo_etfRVmaYsIFVc-46" value="&lt;div style=&quot;font-size: 14px; line-height: 19px; white-space: pre;&quot;&gt;&lt;font style=&quot;&quot; face=&quot;Helvetica&quot;&gt;fecha_emision&lt;/font&gt;&lt;/div&gt;" style="ellipse;whiteSpace=wrap;html=1;fillColor=#fff2cc;strokeColor=#d6b656;" parent="1" vertex="1">
          <mxGeometry x="-399" y="99" width="111" height="50" as="geometry" />
        </mxCell>
        <mxCell id="3TDGZo_etfRVmaYsIFVc-47" value="&lt;div style=&quot;font-family: Consolas, &amp;quot;Courier New&amp;quot;, monospace; font-size: 14px; line-height: 19px; white-space: pre;&quot;&gt;numero_factura&lt;/div&gt;" style="ellipse;whiteSpace=wrap;html=1;fillColor=#fff2cc;strokeColor=#d6b656;" parent="1" vertex="1">
          <mxGeometry x="-408" y="159" width="120" height="48" as="geometry" />
        </mxCell>
        <mxCell id="3TDGZo_etfRVmaYsIFVc-48" value="&lt;div style=&quot;font-family: Consolas, &amp;quot;Courier New&amp;quot;, monospace; font-size: 14px; line-height: 19px; white-space: pre;&quot;&gt;descripcion &lt;/div&gt;" style="ellipse;whiteSpace=wrap;html=1;fillColor=#fff2cc;strokeColor=#d6b656;" parent="1" vertex="1">
          <mxGeometry x="-393" y="279" width="105" height="50" as="geometry" />
        </mxCell>
        <mxCell id="3TDGZo_etfRVmaYsIFVc-49" value="&lt;div style=&quot;font-family: Consolas, &amp;quot;Courier New&amp;quot;, monospace; font-size: 14px; line-height: 19px; white-space: pre;&quot;&gt;tipo&lt;/div&gt;" style="ellipse;whiteSpace=wrap;html=1;fillColor=#fff2cc;strokeColor=#d6b656;" parent="1" vertex="1">
          <mxGeometry x="-368" y="219" width="80" height="50" as="geometry" />
        </mxCell>
        <mxCell id="3TDGZo_etfRVmaYsIFVc-50" value="&lt;div style=&quot;font-family: Consolas, &amp;quot;Courier New&amp;quot;, monospace; font-weight: normal; font-size: 14px; line-height: 19px; white-space: pre;&quot;&gt;&lt;div&gt;imagen&lt;/div&gt;&lt;/div&gt;" style="ellipse;whiteSpace=wrap;html=1;fillColor=#fff2cc;strokeColor=#d6b656;" parent="1" vertex="1">
          <mxGeometry x="-373" y="339" width="85" height="50" as="geometry" />
        </mxCell>
        <mxCell id="3TDGZo_etfRVmaYsIFVc-70" value="1,1" style="text;html=1;align=center;verticalAlign=middle;whiteSpace=wrap;rounded=0;" parent="1" vertex="1">
          <mxGeometry x="-170" y="256" width="60" height="30" as="geometry" />
        </mxCell>
        <mxCell id="3TDGZo_etfRVmaYsIFVc-71" value="1,1" style="text;html=1;align=center;verticalAlign=middle;whiteSpace=wrap;rounded=0;" parent="1" vertex="1">
          <mxGeometry x="-153" y="386" width="60" height="30" as="geometry" />
        </mxCell>
        <mxCell id="3TDGZo_etfRVmaYsIFVc-72" value="1,1" style="text;html=1;align=center;verticalAlign=middle;whiteSpace=wrap;rounded=0;" parent="1" vertex="1">
          <mxGeometry x="310" y="180" width="60" height="30" as="geometry" />
        </mxCell>
        <mxCell id="3TDGZo_etfRVmaYsIFVc-73" value="1,1" style="text;html=1;align=center;verticalAlign=middle;whiteSpace=wrap;rounded=0;" parent="1" vertex="1">
          <mxGeometry x="453.5" y="177" width="60" height="30" as="geometry" />
        </mxCell>
        <mxCell id="3TDGZo_etfRVmaYsIFVc-74" value="1" style="text;html=1;align=center;verticalAlign=middle;whiteSpace=wrap;rounded=0;" parent="1" vertex="1">
          <mxGeometry x="-80" y="177" width="60" height="30" as="geometry" />
        </mxCell>
        <mxCell id="3TDGZo_etfRVmaYsIFVc-75" value="M" style="text;html=1;align=center;verticalAlign=middle;whiteSpace=wrap;rounded=0;" parent="1" vertex="1">
          <mxGeometry x="68" y="177" width="60" height="30" as="geometry" />
        </mxCell>
        <mxCell id="goYMaSE_1tFiabUWBnMu-1" value="Modelo Entidad-Relacion de la Base de Datos" style="text;strokeColor=none;fillColor=none;html=1;fontSize=24;fontStyle=1;verticalAlign=middle;align=center;" vertex="1" parent="1">
          <mxGeometry x="-170" width="525" height="70" as="geometry" />
        </mxCell>
        <mxCell id="goYMaSE_1tFiabUWBnMu-2" value="&lt;span style=&quot;font-weight: normal;&quot;&gt;&lt;font style=&quot;font-size: 18px;&quot;&gt;sistema de almacenamiento de facturas&lt;/font&gt;&lt;/span&gt;" style="text;strokeColor=none;fillColor=none;html=1;fontSize=24;fontStyle=1;verticalAlign=middle;align=center;" vertex="1" parent="1">
          <mxGeometry x="-180" y="49" width="340" height="40" as="geometry" />
        </mxCell>
      </root>
    </mxGraphModel>
  </diagram>
</mxfile>
